<svg width="25" height="23" viewBox="0 0 25 23" fill="none" xmlns="http://www.w3.org/2000/svg">
<g filter="url(#filter0_d_9_169)">
<path fill-rule="evenodd" clip-rule="evenodd" d="M18.4352 13.5455C18.4352 15.8346 16.0579 18.1249 12.5202 18.1249C8.98238 18.1249 6.60516 15.8346 6.60516 13.5455C6.60516 11.1712 8.21117 8.21439 10.0988 5.64031C10.952 4.47688 11.8083 3.46345 12.4779 2.71481C13.1602 3.52195 14.0456 4.62068 14.9278 5.86067C15.8476 7.15354 16.7422 8.56979 17.4014 9.94814C18.0727 11.3518 18.4352 12.5842 18.4352 13.5455ZM4.91516 13.5455C4.91516 9.12811 9.25105 3.80135 11.375 1.45702C12.0639 0.696574 12.5202 0.249939 12.5202 0.249939C12.5202 0.249939 12.9572 0.714501 13.6218 1.49269C15.7294 3.96062 20.1252 9.5829 20.1252 13.5455C20.1252 16.9721 16.7203 19.7499 12.5202 19.7499C8.32004 19.7499 4.91516 16.9721 4.91516 13.5455ZM8.71626 10.8124H10.5343C10.1923 11.5631 9.98516 12.2751 9.98516 12.8807C9.98516 13.8107 10.9313 14.8749 12.5202 14.8749V16.4999C10.1868 16.4999 8.29516 14.8795 8.29516 12.8807C8.29516 12.2137 8.45656 11.5112 8.71626 10.8124Z" fill="white"/>
</g>
<defs>
<filter id="filter0_d_9_169" x="0.915161" y="0.249939" width="23.21" height="27.5" filterUnits="userSpaceOnUse" color-interpolation-filters="sRGB">
<feFlood flood-opacity="0" result="BackgroundImageFix"/>
<feColorMatrix in="SourceAlpha" type="matrix" values="0 0 0 0 0 0 0 0 0 0 0 0 0 0 0 0 0 0 127 0" result="hardAlpha"/>
<feOffset dy="4"/>
<feGaussianBlur stdDeviation="2"/>
<feComposite in2="hardAlpha" operator="out"/>
<feColorMatrix type="matrix" values="0 0 0 0 0 0 0 0 0 0 0 0 0 0 0 0 0 0 0.25 0"/>
<feBlend mode="normal" in2="BackgroundImageFix" result="effect1_dropShadow_9_169"/>
<feBlend mode="normal" in="SourceGraphic" in2="effect1_dropShadow_9_169" result="shape"/>
</filter>
</defs>
</svg>
