<svg width="31" height="30" viewBox="0 0 31 30" fill="none" xmlns="http://www.w3.org/2000/svg">
<path fill-rule="evenodd" clip-rule="evenodd" d="M14.9375 1.875V4.875H16.9375V1.875H14.9375ZM20.5499 21.1407C22.0134 19.8577 22.9375 17.9742 22.9375 15.875C22.9375 12.009 19.8035 8.875 15.9375 8.875C12.0715 8.875 8.9375 12.009 8.9375 15.875C8.9375 16.0168 8.94172 16.1576 8.95003 16.2973C8.26528 16.538 7.62599 16.8752 7.04851 17.2926C6.97545 16.8308 6.9375 16.3574 6.9375 15.875C6.9375 10.9044 10.9669 6.875 15.9375 6.875C20.9081 6.875 24.9375 10.9044 24.9375 15.875C24.9375 18.3435 23.9437 20.5799 22.3343 22.2059C21.8261 21.7353 21.22 21.3688 20.5499 21.1407ZM26.9375 14.875H29.9375V16.875H26.9375V14.875ZM27.5618 8.00897L24.9638 9.50897L25.9638 11.241L28.5618 9.74103L27.5618 8.00897ZM20.5715 5.84881L22.0715 3.25073L23.8036 4.25073L22.3036 6.84881L20.5715 5.84881ZM8.07147 4.25073L9.57147 6.84881L11.3035 5.84881L9.80353 3.25073L8.07147 4.25073ZM5.91125 11.241L3.31317 9.74103L4.31317 8.00897L6.91125 9.50897L5.91125 11.241ZM4.9375 14.875H1.9375V16.875H4.9375V14.875ZM27.5619 23.741L24.9638 22.241L25.9638 20.509L28.5619 22.009L27.5619 23.741Z" fill="url(#paint0_linear_2_900)"/>
<path fill-rule="evenodd" clip-rule="evenodd" d="M11.4375 27.8748C11.4653 27.8748 11.4931 27.8746 11.5208 27.8742H18.8707C18.8835 27.8744 18.8963 27.8746 18.9091 27.8748H18.9375V27.8749C18.9375 27.8749 18.9375 27.8749 18.9375 27.8749C20.5944 27.8749 21.9375 26.5317 21.9375 24.8749C21.9375 23.218 20.5944 21.8749 18.9375 21.8749C18.1681 21.8749 17.4664 22.1645 16.9354 22.6407C16.9396 22.5526 16.9417 22.4641 16.9417 22.375C16.9417 21.6997 16.82 21.0529 16.5973 20.4552C17.2955 20.0847 18.092 19.8749 18.9375 19.8749C21.6989 19.8749 23.9375 22.1135 23.9375 24.8749C23.9375 27.6363 21.6989 29.8749 18.9375 29.8749C18.9253 29.8749 18.9131 29.8748 18.9009 29.8748L11.4763 29.8748V29.8747C11.4633 29.8747 11.4504 29.8748 11.4375 29.8748C7.29537 29.8748 3.9375 26.5169 3.9375 22.3748C3.9375 18.2326 7.29537 14.8748 11.4375 14.8748C14.7096 14.8748 17.4923 16.9701 18.5169 19.8923C17.8265 19.9498 17.176 20.1475 16.5939 20.4569C15.8155 18.365 13.8006 16.8748 11.4375 16.8748C8.39994 16.8748 5.9375 19.3372 5.9375 22.3748C5.9375 25.4123 8.39994 27.8748 11.4375 27.8748Z" fill="url(#paint1_linear_2_900)"/>
<defs>
<linearGradient id="paint0_linear_2_900" x1="15.9375" y1="1.875" x2="15.9375" y2="23.741" gradientUnits="userSpaceOnUse">
<stop stop-color="#EFC977"/>
<stop offset="1" stop-color="#E07256"/>
</linearGradient>
<linearGradient id="paint1_linear_2_900" x1="13.9375" y1="14.8748" x2="13.9375" y2="29.8749" gradientUnits="userSpaceOnUse">
<stop stop-color="#B2D4F7"/>
<stop offset="1" stop-color="#D9E2F3"/>
</linearGradient>
</defs>
</svg>
