<svg width="26" height="26" viewBox="0 0 26 26" fill="none" xmlns="http://www.w3.org/2000/svg">
<path fill-rule="evenodd" clip-rule="evenodd" d="M12.1875 4.0625V1.625H13.8125V4.0625H12.1875ZM16.7652 4.85372L17.9839 2.74278L19.3912 3.55528L18.1724 5.66622L16.7652 4.85372ZM13 18.6875C16.1411 18.6875 18.6875 16.1411 18.6875 13C18.6875 9.85888 16.1411 7.3125 13 7.3125C9.85888 7.3125 7.3125 9.85888 7.3125 13C7.3125 16.1411 9.85888 18.6875 13 18.6875ZM13 20.3125C17.0386 20.3125 20.3125 17.0386 20.3125 13C20.3125 8.96142 17.0386 5.6875 13 5.6875C8.96142 5.6875 5.6875 8.96142 5.6875 13C5.6875 17.0386 8.96142 20.3125 13 20.3125ZM21.9375 12.1875H24.375V13.8125H21.9375V12.1875ZM22.4448 6.60885L20.3338 7.8276L21.1463 9.2349L23.2573 8.01615L22.4448 6.60885ZM6.60885 3.55528L7.8276 5.66622L9.2349 4.85372L8.01615 2.74278L6.60885 3.55528ZM4.85367 9.2349L2.74273 8.01615L3.55523 6.60885L5.66617 7.8276L4.85367 9.2349ZM12.1875 21.9375V24.375H13.8125V21.9375H12.1875ZM4.0625 12.1875H1.625V13.8125H4.0625V12.1875ZM2.74269 17.9839L4.85363 16.7651L5.66613 18.1724L3.55519 19.3911L2.74269 17.9839ZM7.82765 20.3339L6.6089 22.4449L8.01619 23.2574L9.23494 21.1464L7.82765 20.3339ZM17.9839 23.2574L16.7651 21.1464L18.1724 20.3339L19.3911 22.4449L17.9839 23.2574ZM20.3339 18.1724L22.4448 19.3911L23.2573 17.9839L21.1464 16.7651L20.3339 18.1724Z" fill="url(#paint0_linear_2_700)"/>
<defs>
<linearGradient id="paint0_linear_2_700" x1="13" y1="1.625" x2="13" y2="24.375" gradientUnits="userSpaceOnUse">
<stop stop-color="#EFC977"/>
<stop offset="1" stop-color="#E07256"/>
</linearGradient>
</defs>
</svg>
