<svg width="20" height="17" viewBox="0 0 20 17" fill="none" xmlns="http://www.w3.org/2000/svg">
<path fill-rule="evenodd" clip-rule="evenodd" d="M8.37505 3.93292L8.37505 3.92814L3.77569 3.92808L8.18753 2.33389L8.18706 2.33258C8.27154 2.31128 8.35898 2.3037 8.446 2.31019C8.45747 2.31104 8.46895 2.31215 8.4804 2.31349L8.48058 2.31351C8.60006 2.32759 8.71492 2.36803 8.81687 2.43193L8.81689 2.43194C8.91883 2.49584 9.00532 2.58159 9.07009 2.683L9.0702 2.68316C9.13494 2.78458 9.17635 2.89912 9.19145 3.0185L9.19148 3.01872C9.20655 3.13815 9.1949 3.25944 9.15738 3.37381L9.15735 3.3739C9.1198 3.48831 9.05731 3.59293 8.97438 3.68021L8.97431 3.68029C8.8914 3.76753 8.79015 3.83525 8.67787 3.87857L8.67765 3.87865C8.66709 3.88272 8.65646 3.88657 8.64577 3.89018C8.55856 3.91968 8.46702 3.93412 8.37505 3.93292ZM0.249939 3.47404V5.55318L8.35834 5.55328C8.66628 5.55673 8.97257 5.50165 9.26078 5.39047L9.261 5.39038C9.48038 5.30573 9.6857 5.18994 9.87088 5.0471C9.96948 4.97104 10.0624 4.88731 10.1486 4.79652L10.1487 4.79644C10.3969 4.53513 10.584 4.22192 10.6965 3.87943L10.6965 3.87934C10.8089 3.53686 10.8438 3.17368 10.7987 2.81605L10.7987 2.81582C10.7536 2.45818 10.6296 2.11504 10.4356 1.81121L10.4355 1.81105C10.2415 1.50718 9.98248 1.25024 9.67705 1.05881L9.67704 1.0588C9.5709 0.99227 9.46009 0.934233 9.34564 0.885052C9.13075 0.79271 8.90307 0.731592 8.6695 0.704132L8.66932 0.704112C8.32134 0.663226 7.96874 0.698042 7.63566 0.806034L7.63541 0.805341L7.61048 0.81435L7.60754 0.81534L7.6072 0.815454L7.60723 0.815527L0.249939 3.47404ZM0.249939 10.4359V12.1052L10.9797 15.9224L10.9795 15.9227C11.3678 16.0776 11.7855 16.145 12.2028 16.12C12.3633 16.1104 12.5222 16.0872 12.6779 16.0509C12.927 15.9928 13.1679 15.9012 13.3938 15.7779C13.7608 15.5777 14.0792 15.2989 14.3262 14.9615C14.5732 14.6241 14.7427 14.2364 14.8227 13.8259C14.9027 13.4155 14.8912 12.9924 14.7891 12.5869C14.6869 12.1814 14.4966 11.8034 14.2317 11.4799C14.0686 11.2808 13.8798 11.1053 13.6706 10.9578C13.54 10.8657 13.4015 10.7845 13.2565 10.7153C12.8797 10.5355 12.468 10.441 12.0506 10.4384V10.4359L0.249939 10.4359ZM12.0396 12.0611L4.97471 12.0611L11.6121 14.4224L11.6115 14.4241C11.7693 14.4823 11.9375 14.5072 12.1056 14.4971C12.2843 14.4864 12.4584 14.4364 12.6156 14.3506C12.7727 14.2649 12.9091 14.1455 13.0148 14.001C13.1206 13.8565 13.1932 13.6905 13.2275 13.5147C13.2617 13.339 13.2568 13.1578 13.2131 12.9842C13.1693 12.8105 13.0878 12.6487 12.9744 12.5101C12.8609 12.3716 12.7183 12.2598 12.5568 12.1827C12.3954 12.1057 12.2191 12.0652 12.0403 12.0641L12.0396 12.0641L12.0396 12.0638L12.0396 12.0611ZM15.7021 4.1391L15.7014 4.1395L14.9023 2.72457L14.9013 2.72293L14.9029 2.72203C15.3356 2.47784 15.8185 2.33612 16.3145 2.30777C16.3864 2.30365 16.4584 2.30194 16.5302 2.30261C16.9542 2.30656 17.374 2.39346 17.7657 2.55918C18.2239 2.75297 18.6314 3.04937 18.957 3.42554C19.2826 3.80171 19.5175 4.24762 19.6437 4.72891C19.7698 5.21021 19.7839 5.71405 19.6847 6.20163C19.5855 6.6892 19.3758 7.1475 19.0716 7.54121C18.8116 7.87786 18.4884 8.15961 18.121 8.37112C18.0587 8.40698 17.9951 8.44081 17.9304 8.47256C17.4838 8.69156 16.9928 8.80509 16.4954 8.80439V8.80415H0.249939V7.17915H16.4977L16.4977 7.1774C16.7461 7.17774 16.9914 7.12103 17.2145 7.01164C17.4376 6.90224 17.6327 6.74307 17.7846 6.5464C17.9365 6.34972 18.0413 6.12079 18.0908 5.87723C18.1404 5.63367 18.1334 5.38198 18.0703 5.14156C18.0073 4.90113 17.89 4.67838 17.7273 4.49047C17.5647 4.30256 17.3611 4.1545 17.1322 4.0577C16.9034 3.96089 16.6554 3.91793 16.4073 3.93211C16.1595 3.94628 15.9183 4.01709 15.7021 4.1391Z" fill="white"/>
</svg>
